<?xml version="1.0" encoding="utf-8"?>
<!-- Generator: Adobe Illustrator 16.0.0, SVG Export Plug-In . SVG Version: 6.00 Build 0)  -->
<!DOCTYPE svg PUBLIC "-//W3C//DTD SVG 1.1//EN" "http://www.w3.org/Graphics/SVG/1.1/DTD/svg11.dtd">
<svg version="1.1" xmlns="http://www.w3.org/2000/svg" xmlns:xlink="http://www.w3.org/1999/xlink" x="0px" y="0px" width="1000px"
	 height="700px" viewBox="0 0 1000 700" enable-background="new 0 0 1000 700" xml:space="preserve">
<g id="Guides_For_Artboard_3_">
</g>
<g id="Guides_For_Artboard_2_">
</g>
<g id="Guides_For_Artboard_1_">
</g>
<g id="Guides_For_Artboard">
</g>
<g id="Layer_1">
	<radialGradient id="SVGID_1_" cx="643.8906" cy="181.9507" r="471.0831" gradientUnits="userSpaceOnUse">
		<stop  offset="0" style="stop-color:#BCBEC0"/>
		<stop  offset="0.1173" style="stop-color:#B1B3B5"/>
		<stop  offset="0.4612" style="stop-color:#96989B"/>
		<stop  offset="0.7666" style="stop-color:#86888B"/>
		<stop  offset="1" style="stop-color:#808285"/>
	</radialGradient>
	<path fill-rule="evenodd" clip-rule="evenodd" fill="url(#SVGID_1_)" d="M513.347,54.944
		c77.267,29.158,157.366,43.599,239.229,52.22l35.205,3.706l-1.364,35.376c-3.779,97.859-22.491,197.923-62.059,287.849
		c-36.882,83.823-95.609,164.359-181.952,201.665c-9.746,4.21-19.744,7.816-29.933,10.791l-12.081,3.539l-11.798-4.412
		c-26.626-9.967-51.98-23.203-75.338-39.413C268.949,506.126,219.722,312.492,213.533,146.203l-1.314-35.333l35.161-3.706
		c62.863-6.612,124.693-16.671,185.001-34.185c6.107,4.566,12.154,9.685,16.652,14.785
		c-65.038,19.983-131.379,31.026-199.675,38.209l-17.587,1.855l0.664,17.661c5.948,159.794,52.625,348.794,191.6,445.234
		c22.086,15.319,46.026,27.812,71.196,37.238l5.893,2.206l6.041-1.77c9.444-2.759,18.711-6.102,27.738-9.998
		c81.765-35.327,137.297-112.735,172.139-191.926c38.535-87.578,56.798-185.651,60.473-280.96l0.688-17.686l-17.605-1.855
		c-83.86-8.824-164.765-23.461-243.931-53.333l-6.68-2.52l-6.673,2.526c-4.222,1.585-8.45,3.128-12.678,4.639
		c-8.854-3.656-17.464-7.429-25.631-11.264c10.595-3.429,21.139-7.116,31.629-11.073l13.353-5.039L513.347,54.944z"/>
	<radialGradient id="SVGID_2_" cx="586.1338" cy="142.7549" r="220.5602" gradientUnits="userSpaceOnUse">
		<stop  offset="0" style="stop-color:#F4C027"/>
		<stop  offset="1" style="stop-color:#ED8B31"/>
	</radialGradient>
	<path fill-rule="evenodd" clip-rule="evenodd" fill="url(#SVGID_2_)" d="M561.363,387.971v-17.648
		c20.008-8.352,39.739-20.623,40.213-35.192c0.547-16.561-19.91-25.545-40.213-28.875v-5.685c5.721,0.922,11.368,2.157,16.905,3.742
		c9.444,2.704,26.134,9.599,28.948,27.48c10.231-70.507-6.102-123.581-45.854-169.798V120.16
		c57.984,16.371,116.656,25.797,177.897,32.243c-2.814,72.763-14.748,147.842-38.701,217.636
		c-0.173-15.178-19.94-19.024-66.544-3.459C612.133,373.886,587.479,381.377,561.363,387.971z M462.275,113.082
		c-25.637,8.129-51.359,14.797-77.328,20.327v168.507C445.604,245.917,486.18,177.973,462.275,113.082L462.275,113.082z
		 M561.363,120.16v41.835c-26.288-30.553-62.795-58.119-108.668-85.729c21.729,8.554,42.327,18.171,61.364,28.875
		C529.803,110.722,545.553,115.699,561.363,120.16L561.363,120.16z M561.363,300.57v5.685c-7.626-1.254-15.228-1.709-21.686-1.469
		c7.361,29.526-4.726,60.73-18.533,77.341c5.493-0.326,22.958-4.603,40.219-11.805v17.648
		c-56.281,14.207-119.385,24.272-176.416,19.565v-70.452C444.824,311.656,507.066,291.808,561.363,300.57z M384.947,133.409
		c-40.587,8.646-81.783,14.533-124.208,19c2.557,68.522,13.156,144.296,37.097,214.693c30.405-18.626,60.663-40.772,87.111-65.187
		V133.409L384.947,133.409z M384.947,337.084v70.452c-28.593-2.366-55.655-8.443-79.571-19.578
		c-1.604-4.179-3.152-8.369-4.657-12.591C327.449,363.047,355.925,349.411,384.947,337.084z"/>
	<radialGradient id="SVGID_3_" cx="651.9688" cy="443.9277" r="99.1433" gradientUnits="userSpaceOnUse">
		<stop  offset="0" style="stop-color:#32ADD9"/>
		<stop  offset="0.1818" style="stop-color:#32A4D2"/>
		<stop  offset="0.6716" style="stop-color:#318FC3"/>
		<stop  offset="1" style="stop-color:#3188BD"/>
	</radialGradient>
	<path fill-rule="evenodd" clip-rule="evenodd" fill="url(#SVGID_3_)" d="M527.443,514.876c43.998-31.597,80.118-65.1,83.651-84.309
		c2.931-15.891-34.203-5.032-83.651,5.567V514.876L527.443,514.876z M527.443,590.97v-60.792
		c78.532-45.246,143.331-102.302,165.183-138.373c-3.171,8.197-6.508,16.321-10.028,24.334
		C651.928,485.835,602.142,558.223,527.443,590.97z M323.013,428.441c26.841,54.727,63.92,103.168,114.29,138.12
		c1.014,0.701,2.034,1.401,3.06,2.09c27.991-14.386,59.127-33.693,87.081-53.775v-78.741l-0.694,0.153
		C448.904,452.936,379.607,453.703,323.013,428.441L323.013,428.441z M527.443,530.178v60.792l-1.051,0.467
		c-7.982,3.447-16.198,6.415-24.58,8.861c-20.481-7.663-39.911-17.514-58.027-29.373
		C472.495,559.568,500.762,545.552,527.443,530.178z"/>
	<rect x="-289.999" y="750.775" fill="none" width="1580" height="226"/>
	<text transform="matrix(1 0 0 1 -289.999 892.8555)" fill="#F5F5F5" font-family="'TrajanPro-Bold'" font-size="222">Safe Sailing</text>
</g>
</svg>
